<mxfile host="app.diagrams.net" modified="2021-10-11T08:45:42.704Z" agent="5.0 (Windows NT 6.2; Win64; x64) AppleWebKit/537.36 (KHTML, like Gecko) Chrome/94.0.4606.71 Safari/537.36" etag="j47QbGwi04q1xFcQjR8M" version="15.5.0" type="github" pages="2">
  <diagram id="oQ46GwbTG5hlsGD07bsT" name="Page-1">
    <mxGraphModel dx="1414" dy="754" grid="1" gridSize="10" guides="1" tooltips="1" connect="1" arrows="1" fold="1" page="1" pageScale="1" pageWidth="827" pageHeight="1169" math="0" shadow="0">
      <root>
        <mxCell id="0" />
        <mxCell id="1" parent="0" />
        <mxCell id="7D3Jjfrrck9tbJU3Sy70-1" value="user" style="shape=table;startSize=30;container=1;collapsible=1;childLayout=tableLayout;fixedRows=1;rowLines=0;fontStyle=1;align=center;resizeLast=1;" vertex="1" parent="1">
          <mxGeometry x="460" y="80" width="220" height="280" as="geometry" />
        </mxCell>
        <mxCell id="7D3Jjfrrck9tbJU3Sy70-2" value="" style="shape=partialRectangle;collapsible=0;dropTarget=0;pointerEvents=0;fillColor=none;top=0;left=0;bottom=1;right=0;points=[[0,0.5],[1,0.5]];portConstraint=eastwest;" vertex="1" parent="7D3Jjfrrck9tbJU3Sy70-1">
          <mxGeometry y="30" width="220" height="30" as="geometry" />
        </mxCell>
        <mxCell id="7D3Jjfrrck9tbJU3Sy70-3" value="PK" style="shape=partialRectangle;connectable=0;fillColor=none;top=0;left=0;bottom=0;right=0;fontStyle=1;overflow=hidden;" vertex="1" parent="7D3Jjfrrck9tbJU3Sy70-2">
          <mxGeometry width="70" height="30" as="geometry">
            <mxRectangle width="70" height="30" as="alternateBounds" />
          </mxGeometry>
        </mxCell>
        <mxCell id="7D3Jjfrrck9tbJU3Sy70-4" value="user_id" style="shape=partialRectangle;connectable=0;fillColor=none;top=0;left=0;bottom=0;right=0;align=left;spacingLeft=6;fontStyle=5;overflow=hidden;" vertex="1" parent="7D3Jjfrrck9tbJU3Sy70-2">
          <mxGeometry x="70" width="150" height="30" as="geometry">
            <mxRectangle width="150" height="30" as="alternateBounds" />
          </mxGeometry>
        </mxCell>
        <mxCell id="7D3Jjfrrck9tbJU3Sy70-5" value="" style="shape=partialRectangle;collapsible=0;dropTarget=0;pointerEvents=0;fillColor=none;top=0;left=0;bottom=0;right=0;points=[[0,0.5],[1,0.5]];portConstraint=eastwest;" vertex="1" parent="7D3Jjfrrck9tbJU3Sy70-1">
          <mxGeometry y="60" width="220" height="30" as="geometry" />
        </mxCell>
        <mxCell id="7D3Jjfrrck9tbJU3Sy70-6" value="" style="shape=partialRectangle;connectable=0;fillColor=none;top=0;left=0;bottom=0;right=0;editable=1;overflow=hidden;" vertex="1" parent="7D3Jjfrrck9tbJU3Sy70-5">
          <mxGeometry width="70" height="30" as="geometry">
            <mxRectangle width="70" height="30" as="alternateBounds" />
          </mxGeometry>
        </mxCell>
        <mxCell id="7D3Jjfrrck9tbJU3Sy70-7" value="email" style="shape=partialRectangle;connectable=0;fillColor=none;top=0;left=0;bottom=0;right=0;align=left;spacingLeft=6;overflow=hidden;" vertex="1" parent="7D3Jjfrrck9tbJU3Sy70-5">
          <mxGeometry x="70" width="150" height="30" as="geometry">
            <mxRectangle width="150" height="30" as="alternateBounds" />
          </mxGeometry>
        </mxCell>
        <mxCell id="7D3Jjfrrck9tbJU3Sy70-8" value="" style="shape=partialRectangle;collapsible=0;dropTarget=0;pointerEvents=0;fillColor=none;top=0;left=0;bottom=0;right=0;points=[[0,0.5],[1,0.5]];portConstraint=eastwest;" vertex="1" parent="7D3Jjfrrck9tbJU3Sy70-1">
          <mxGeometry y="90" width="220" height="30" as="geometry" />
        </mxCell>
        <mxCell id="7D3Jjfrrck9tbJU3Sy70-9" value="" style="shape=partialRectangle;connectable=0;fillColor=none;top=0;left=0;bottom=0;right=0;editable=1;overflow=hidden;" vertex="1" parent="7D3Jjfrrck9tbJU3Sy70-8">
          <mxGeometry width="70" height="30" as="geometry">
            <mxRectangle width="70" height="30" as="alternateBounds" />
          </mxGeometry>
        </mxCell>
        <mxCell id="7D3Jjfrrck9tbJU3Sy70-10" value="phone" style="shape=partialRectangle;connectable=0;fillColor=none;top=0;left=0;bottom=0;right=0;align=left;spacingLeft=6;overflow=hidden;" vertex="1" parent="7D3Jjfrrck9tbJU3Sy70-8">
          <mxGeometry x="70" width="150" height="30" as="geometry">
            <mxRectangle width="150" height="30" as="alternateBounds" />
          </mxGeometry>
        </mxCell>
        <mxCell id="7D3Jjfrrck9tbJU3Sy70-11" value="" style="shape=partialRectangle;collapsible=0;dropTarget=0;pointerEvents=0;fillColor=none;top=0;left=0;bottom=0;right=0;points=[[0,0.5],[1,0.5]];portConstraint=eastwest;" vertex="1" parent="7D3Jjfrrck9tbJU3Sy70-1">
          <mxGeometry y="120" width="220" height="30" as="geometry" />
        </mxCell>
        <mxCell id="7D3Jjfrrck9tbJU3Sy70-12" value="" style="shape=partialRectangle;connectable=0;fillColor=none;top=0;left=0;bottom=0;right=0;editable=1;overflow=hidden;" vertex="1" parent="7D3Jjfrrck9tbJU3Sy70-11">
          <mxGeometry width="70" height="30" as="geometry">
            <mxRectangle width="70" height="30" as="alternateBounds" />
          </mxGeometry>
        </mxCell>
        <mxCell id="7D3Jjfrrck9tbJU3Sy70-13" value="user_name" style="shape=partialRectangle;connectable=0;fillColor=none;top=0;left=0;bottom=0;right=0;align=left;spacingLeft=6;overflow=hidden;" vertex="1" parent="7D3Jjfrrck9tbJU3Sy70-11">
          <mxGeometry x="70" width="150" height="30" as="geometry">
            <mxRectangle width="150" height="30" as="alternateBounds" />
          </mxGeometry>
        </mxCell>
        <mxCell id="7D3Jjfrrck9tbJU3Sy70-14" value="" style="shape=partialRectangle;collapsible=0;dropTarget=0;pointerEvents=0;fillColor=none;top=0;left=0;bottom=0;right=0;points=[[0,0.5],[1,0.5]];portConstraint=eastwest;" vertex="1" parent="7D3Jjfrrck9tbJU3Sy70-1">
          <mxGeometry y="150" width="220" height="30" as="geometry" />
        </mxCell>
        <mxCell id="7D3Jjfrrck9tbJU3Sy70-15" value="" style="shape=partialRectangle;connectable=0;fillColor=none;top=0;left=0;bottom=0;right=0;editable=1;overflow=hidden;" vertex="1" parent="7D3Jjfrrck9tbJU3Sy70-14">
          <mxGeometry width="70" height="30" as="geometry">
            <mxRectangle width="70" height="30" as="alternateBounds" />
          </mxGeometry>
        </mxCell>
        <mxCell id="7D3Jjfrrck9tbJU3Sy70-16" value="org_id" style="shape=partialRectangle;connectable=0;fillColor=none;top=0;left=0;bottom=0;right=0;align=left;spacingLeft=6;overflow=hidden;" vertex="1" parent="7D3Jjfrrck9tbJU3Sy70-14">
          <mxGeometry x="70" width="150" height="30" as="geometry">
            <mxRectangle width="150" height="30" as="alternateBounds" />
          </mxGeometry>
        </mxCell>
        <mxCell id="7D3Jjfrrck9tbJU3Sy70-60" value="" style="shape=partialRectangle;collapsible=0;dropTarget=0;pointerEvents=0;fillColor=none;top=0;left=0;bottom=0;right=0;points=[[0,0.5],[1,0.5]];portConstraint=eastwest;" vertex="1" parent="7D3Jjfrrck9tbJU3Sy70-1">
          <mxGeometry y="180" width="220" height="30" as="geometry" />
        </mxCell>
        <mxCell id="7D3Jjfrrck9tbJU3Sy70-61" value="" style="shape=partialRectangle;connectable=0;fillColor=none;top=0;left=0;bottom=0;right=0;editable=1;overflow=hidden;" vertex="1" parent="7D3Jjfrrck9tbJU3Sy70-60">
          <mxGeometry width="70" height="30" as="geometry">
            <mxRectangle width="70" height="30" as="alternateBounds" />
          </mxGeometry>
        </mxCell>
        <mxCell id="7D3Jjfrrck9tbJU3Sy70-62" value="pwd" style="shape=partialRectangle;connectable=0;fillColor=none;top=0;left=0;bottom=0;right=0;align=left;spacingLeft=6;overflow=hidden;" vertex="1" parent="7D3Jjfrrck9tbJU3Sy70-60">
          <mxGeometry x="70" width="150" height="30" as="geometry">
            <mxRectangle width="150" height="30" as="alternateBounds" />
          </mxGeometry>
        </mxCell>
        <mxCell id="7D3Jjfrrck9tbJU3Sy70-20" value="" style="shape=partialRectangle;collapsible=0;dropTarget=0;pointerEvents=0;fillColor=none;top=0;left=0;bottom=0;right=0;points=[[0,0.5],[1,0.5]];portConstraint=eastwest;" vertex="1" parent="7D3Jjfrrck9tbJU3Sy70-1">
          <mxGeometry y="210" width="220" height="30" as="geometry" />
        </mxCell>
        <mxCell id="7D3Jjfrrck9tbJU3Sy70-21" value="是否启用" style="shape=partialRectangle;connectable=0;fillColor=#f8cecc;top=0;left=0;bottom=0;right=0;editable=1;overflow=hidden;strokeColor=#b85450;" vertex="1" parent="7D3Jjfrrck9tbJU3Sy70-20">
          <mxGeometry width="70" height="30" as="geometry">
            <mxRectangle width="70" height="30" as="alternateBounds" />
          </mxGeometry>
        </mxCell>
        <mxCell id="7D3Jjfrrck9tbJU3Sy70-22" value="status" style="shape=partialRectangle;connectable=0;fillColor=none;top=0;left=0;bottom=0;right=0;align=left;spacingLeft=6;overflow=hidden;" vertex="1" parent="7D3Jjfrrck9tbJU3Sy70-20">
          <mxGeometry x="70" width="150" height="30" as="geometry">
            <mxRectangle width="150" height="30" as="alternateBounds" />
          </mxGeometry>
        </mxCell>
        <mxCell id="7D3Jjfrrck9tbJU3Sy70-23" value="" style="shape=partialRectangle;collapsible=0;dropTarget=0;pointerEvents=0;fillColor=none;top=0;left=0;bottom=0;right=0;points=[[0,0.5],[1,0.5]];portConstraint=eastwest;" vertex="1" parent="7D3Jjfrrck9tbJU3Sy70-1">
          <mxGeometry y="240" width="220" height="30" as="geometry" />
        </mxCell>
        <mxCell id="7D3Jjfrrck9tbJU3Sy70-24" value="用户来源" style="shape=partialRectangle;connectable=0;fillColor=#f8cecc;top=0;left=0;bottom=0;right=0;editable=1;overflow=hidden;strokeColor=#b85450;" vertex="1" parent="7D3Jjfrrck9tbJU3Sy70-23">
          <mxGeometry width="70" height="30" as="geometry">
            <mxRectangle width="70" height="30" as="alternateBounds" />
          </mxGeometry>
        </mxCell>
        <mxCell id="7D3Jjfrrck9tbJU3Sy70-25" value="createSource" style="shape=partialRectangle;connectable=0;fillColor=none;top=0;left=0;bottom=0;right=0;align=left;spacingLeft=6;overflow=hidden;" vertex="1" parent="7D3Jjfrrck9tbJU3Sy70-23">
          <mxGeometry x="70" width="150" height="30" as="geometry">
            <mxRectangle width="150" height="30" as="alternateBounds" />
          </mxGeometry>
        </mxCell>
        <mxCell id="7D3Jjfrrck9tbJU3Sy70-41" value="user_channel" style="shape=table;startSize=30;container=1;collapsible=1;childLayout=tableLayout;fixedRows=1;rowLines=0;fontStyle=1;align=center;resizeLast=1;" vertex="1" parent="1">
          <mxGeometry x="880" y="130" width="300" height="160" as="geometry" />
        </mxCell>
        <mxCell id="7D3Jjfrrck9tbJU3Sy70-42" value="" style="shape=partialRectangle;collapsible=0;dropTarget=0;pointerEvents=0;fillColor=none;top=0;left=0;bottom=1;right=0;points=[[0,0.5],[1,0.5]];portConstraint=eastwest;" vertex="1" parent="7D3Jjfrrck9tbJU3Sy70-41">
          <mxGeometry y="30" width="300" height="30" as="geometry" />
        </mxCell>
        <mxCell id="7D3Jjfrrck9tbJU3Sy70-43" value="PK" style="shape=partialRectangle;connectable=0;fillColor=none;top=0;left=0;bottom=0;right=0;fontStyle=1;overflow=hidden;" vertex="1" parent="7D3Jjfrrck9tbJU3Sy70-42">
          <mxGeometry width="180" height="30" as="geometry">
            <mxRectangle width="180" height="30" as="alternateBounds" />
          </mxGeometry>
        </mxCell>
        <mxCell id="7D3Jjfrrck9tbJU3Sy70-44" value="id" style="shape=partialRectangle;connectable=0;fillColor=none;top=0;left=0;bottom=0;right=0;align=left;spacingLeft=6;fontStyle=5;overflow=hidden;" vertex="1" parent="7D3Jjfrrck9tbJU3Sy70-42">
          <mxGeometry x="180" width="120" height="30" as="geometry">
            <mxRectangle width="120" height="30" as="alternateBounds" />
          </mxGeometry>
        </mxCell>
        <mxCell id="7D3Jjfrrck9tbJU3Sy70-45" value="" style="shape=partialRectangle;collapsible=0;dropTarget=0;pointerEvents=0;fillColor=none;top=0;left=0;bottom=0;right=0;points=[[0,0.5],[1,0.5]];portConstraint=eastwest;" vertex="1" parent="7D3Jjfrrck9tbJU3Sy70-41">
          <mxGeometry y="60" width="300" height="30" as="geometry" />
        </mxCell>
        <mxCell id="7D3Jjfrrck9tbJU3Sy70-46" value="" style="shape=partialRectangle;connectable=0;fillColor=none;top=0;left=0;bottom=0;right=0;editable=1;overflow=hidden;" vertex="1" parent="7D3Jjfrrck9tbJU3Sy70-45">
          <mxGeometry width="180" height="30" as="geometry">
            <mxRectangle width="180" height="30" as="alternateBounds" />
          </mxGeometry>
        </mxCell>
        <mxCell id="7D3Jjfrrck9tbJU3Sy70-47" value="user_id" style="shape=partialRectangle;connectable=0;fillColor=none;top=0;left=0;bottom=0;right=0;align=left;spacingLeft=6;overflow=hidden;" vertex="1" parent="7D3Jjfrrck9tbJU3Sy70-45">
          <mxGeometry x="180" width="120" height="30" as="geometry">
            <mxRectangle width="120" height="30" as="alternateBounds" />
          </mxGeometry>
        </mxCell>
        <mxCell id="7D3Jjfrrck9tbJU3Sy70-48" value="" style="shape=partialRectangle;collapsible=0;dropTarget=0;pointerEvents=0;fillColor=none;top=0;left=0;bottom=0;right=0;points=[[0,0.5],[1,0.5]];portConstraint=eastwest;" vertex="1" parent="7D3Jjfrrck9tbJU3Sy70-41">
          <mxGeometry y="90" width="300" height="30" as="geometry" />
        </mxCell>
        <mxCell id="7D3Jjfrrck9tbJU3Sy70-49" value="登录渠道 账户密码/qq/微信/等" style="shape=partialRectangle;connectable=0;fillColor=none;top=0;left=0;bottom=0;right=0;editable=1;overflow=hidden;" vertex="1" parent="7D3Jjfrrck9tbJU3Sy70-48">
          <mxGeometry width="180" height="30" as="geometry">
            <mxRectangle width="180" height="30" as="alternateBounds" />
          </mxGeometry>
        </mxCell>
        <mxCell id="7D3Jjfrrck9tbJU3Sy70-50" value="login_channel" style="shape=partialRectangle;connectable=0;fillColor=none;top=0;left=0;bottom=0;right=0;align=left;spacingLeft=6;overflow=hidden;" vertex="1" parent="7D3Jjfrrck9tbJU3Sy70-48">
          <mxGeometry x="180" width="120" height="30" as="geometry">
            <mxRectangle width="120" height="30" as="alternateBounds" />
          </mxGeometry>
        </mxCell>
        <mxCell id="7D3Jjfrrck9tbJU3Sy70-51" value="" style="shape=partialRectangle;collapsible=0;dropTarget=0;pointerEvents=0;fillColor=none;top=0;left=0;bottom=0;right=0;points=[[0,0.5],[1,0.5]];portConstraint=eastwest;" vertex="1" parent="7D3Jjfrrck9tbJU3Sy70-41">
          <mxGeometry y="120" width="300" height="30" as="geometry" />
        </mxCell>
        <mxCell id="7D3Jjfrrck9tbJU3Sy70-52" value="关联id" style="shape=partialRectangle;connectable=0;fillColor=none;top=0;left=0;bottom=0;right=0;editable=1;overflow=hidden;" vertex="1" parent="7D3Jjfrrck9tbJU3Sy70-51">
          <mxGeometry width="180" height="30" as="geometry">
            <mxRectangle width="180" height="30" as="alternateBounds" />
          </mxGeometry>
        </mxCell>
        <mxCell id="7D3Jjfrrck9tbJU3Sy70-53" value="open_id" style="shape=partialRectangle;connectable=0;fillColor=none;top=0;left=0;bottom=0;right=0;align=left;spacingLeft=6;overflow=hidden;" vertex="1" parent="7D3Jjfrrck9tbJU3Sy70-51">
          <mxGeometry x="180" width="120" height="30" as="geometry">
            <mxRectangle width="120" height="30" as="alternateBounds" />
          </mxGeometry>
        </mxCell>
        <mxCell id="7D3Jjfrrck9tbJU3Sy70-59" value="" style="shape=image;verticalLabelPosition=bottom;labelBackgroundColor=#ffffff;verticalAlign=top;aspect=fixed;imageAspect=0;image=data:image/svg+xml,PHN2ZyB4bWxucz0iaHR0cDovL3d3dy53My5vcmcvMjAwMC9zdmciIGhlaWdodD0iMThweCIgdmlld0JveD0iMCAwIDI0IDI0IiB3aWR0aD0iMThweCIgZmlsbD0iIzAwMDAwMCI+PHBhdGggZD0iTTAgMGgyNHYyNEgwVjB6IiBmaWxsPSJub25lIi8+PHBhdGggZD0iTTE0LjA2IDkuMDJsLjkyLjkyTDUuOTIgMTlINXYtLjkybDkuMDYtOS4wNk0xNy42NiAzYy0uMjUgMC0uNTEuMS0uNy4yOWwtMS44MyAxLjgzIDMuNzUgMy43NSAxLjgzLTEuODNjLjM5LS4zOS4zOS0xLjAyIDAtMS40MWwtMi4zNC0yLjM0Yy0uMi0uMi0uNDUtLjI5LS43MS0uMjl6bS0zLjYgMy4xOUwzIDE3LjI1VjIxaDMuNzVMMTcuODEgOS45NGwtMy43NS0zLjc1eiIvPjwvc3ZnPg==;" vertex="1" parent="1">
          <mxGeometry x="1660" y="40" width="18" height="18" as="geometry" />
        </mxCell>
      </root>
    </mxGraphModel>
  </diagram>
  <diagram id="e5HKCUsronnGliyApELo" name="Page-2">
    <mxGraphModel dx="1414" dy="754" grid="1" gridSize="10" guides="1" tooltips="1" connect="1" arrows="1" fold="1" page="1" pageScale="1" pageWidth="827" pageHeight="1169" math="0" shadow="0">
      <root>
        <mxCell id="QvB-ZzZFyUaPUTsgpl8_-0" />
        <mxCell id="QvB-ZzZFyUaPUTsgpl8_-1" parent="QvB-ZzZFyUaPUTsgpl8_-0" />
      </root>
    </mxGraphModel>
  </diagram>
</mxfile>
